<svg width="61" height="61" viewBox="0 0 61 61" fill="none" xmlns="http://www.w3.org/2000/svg">
<g id="cv-icon">
<path id="Vector" fill-rule="evenodd" clip-rule="evenodd" d="M6.25413 3.57329C2.68518 7.14661 2.68518 12.8977 2.68518 24.4V36.6C2.68518 48.1022 2.68518 53.8535 6.25413 57.4266C9.82311 61 15.5672 61 27.0555 61H33.1481C44.6363 61 50.3807 61 53.9495 57.4266C57.5185 53.8535 57.5185 48.1022 57.5185 36.6V24.4C57.5185 12.8977 57.5185 7.14661 53.9495 3.57329C50.3807 3.63588e-07 44.6363 0 33.1481 0H27.0555C15.5672 0 9.82311 3.63588e-07 6.25413 3.57329ZM17.9167 22.1125C16.6549 22.1125 15.6319 23.1367 15.6319 24.4C15.6319 25.6633 16.6549 26.6875 17.9167 26.6875H42.287C43.5488 26.6875 44.5718 25.6633 44.5718 24.4C44.5718 23.1367 43.5488 22.1125 42.287 22.1125H17.9167ZM17.9167 34.3125C16.6549 34.3125 15.6319 35.3367 15.6319 36.6C15.6319 37.8633 16.6549 38.8875 17.9167 38.8875H33.1481C34.4099 38.8875 35.4329 37.8633 35.4329 36.6C35.4329 35.3367 34.4099 34.3125 33.1481 34.3125H17.9167Z" fill="#FFF8BB"/>
</g>
</svg>
