<svg width="61" height="61" viewBox="0 0 61 61" fill="none" xmlns="http://www.w3.org/2000/svg">
<g id="github-icon" clip-path="url(#clip0_45_161)">
<g id="Group">
<path id="Vector" d="M30.4632 0C13.641 0 0 13.9828 0 31.2323C0 45.0315 8.72864 56.7387 20.8326 60.8685C22.3551 61.1576 22.914 60.1909 22.914 59.366C22.914 58.6213 22.8857 56.161 22.8726 53.5512C14.3977 55.4405 12.6094 49.8662 12.6094 49.8662C11.2237 46.2562 9.22704 45.2963 9.22704 45.2963C6.46312 43.3579 9.43538 43.3977 9.43538 43.3977C12.4944 43.618 14.1052 46.6162 14.1052 46.6162C16.8222 51.3909 21.2316 50.0105 22.97 49.2125C23.2434 47.1939 24.0329 45.8161 24.9041 45.0361C18.1378 44.2464 11.0249 41.5684 11.0249 29.601C11.0249 26.1912 12.2149 23.4051 14.1637 21.2179C13.8474 20.4312 12.8047 17.2546 14.4588 12.9526C14.4588 12.9526 17.0169 12.1132 22.8383 16.154C25.2683 15.462 27.8743 15.115 30.4632 15.1031C33.0521 15.115 35.6601 15.462 38.0947 16.154C43.909 12.1132 46.4636 12.9526 46.4636 12.9526C48.1218 17.2546 47.0786 20.4312 46.7623 21.2179C48.7155 23.4051 49.8975 26.1912 49.8975 29.601C49.8975 41.5968 42.771 44.2381 35.9875 45.0113C37.0802 45.9805 38.0538 47.8812 38.0538 50.7951C38.0538 54.974 38.0185 58.3373 38.0185 59.366C38.0185 60.1971 38.5668 61.171 40.111 60.8643C52.2084 56.7299 60.9259 45.0268 60.9259 31.2323C60.9259 13.9828 47.2869 0 30.4632 0ZM11.4095 44.491C11.3424 44.6462 11.1043 44.6927 10.8874 44.5862C10.6664 44.4843 10.5423 44.2728 10.6139 44.1171C10.6795 43.9573 10.9181 43.9128 11.1386 44.0199C11.36 44.1217 11.4861 44.3353 11.4095 44.491ZM12.9079 45.8618C12.7626 45.9999 12.4786 45.9358 12.2859 45.7175C12.0867 45.4998 12.0493 45.2086 12.1966 45.0684C12.3465 44.9304 12.6219 44.995 12.8217 45.2127C13.0209 45.4331 13.0598 45.7222 12.9079 45.8618ZM13.9359 47.6157C13.7493 47.7486 13.4441 47.624 13.2554 47.3463C13.0687 47.0685 13.0687 46.7355 13.2594 46.602C13.4486 46.4686 13.7493 46.5886 13.9405 46.8642C14.1266 47.1466 14.1266 47.4797 13.9359 47.6157ZM15.6745 49.647C15.5075 49.8357 15.1519 49.7851 14.8916 49.5275C14.6252 49.2756 14.551 48.9182 14.7185 48.7295C14.8875 48.5402 15.2452 48.5934 15.5075 48.8489C15.7718 49.1003 15.8525 49.4603 15.6745 49.647ZM17.9214 50.3327C17.8477 50.5773 17.5052 50.6885 17.1602 50.5846C16.8156 50.4775 16.5901 50.191 16.6597 49.9438C16.7314 49.6976 17.0754 49.5817 17.423 49.6929C17.767 49.7995 17.993 50.0839 17.9214 50.3327ZM20.4785 50.6236C20.4871 50.8811 20.1945 51.0947 19.8323 51.0994C19.468 51.1077 19.1734 50.8992 19.1694 50.6458C19.1694 50.3857 19.4554 50.1741 19.8197 50.1679C20.1819 50.1607 20.4785 50.3676 20.4785 50.6236ZM22.9905 50.5248C23.0339 50.7762 22.7822 51.0343 22.4225 51.1031C22.0689 51.1693 21.7415 51.0141 21.6966 50.7648C21.6527 50.5073 21.909 50.2492 22.2621 50.1825C22.6223 50.1183 22.9446 50.2694 22.9905 50.5248Z" fill="#FFF8BB"/>
</g>
</g>
<defs>
<clipPath id="clip0_45_161">
<rect width="60.9259" height="61" fill="white"/>
</clipPath>
</defs>
</svg>
