<svg width="61" height="61" viewBox="0 0 61 61" fill="none" xmlns="http://www.w3.org/2000/svg">
<g id="linkedin-icon" clip-path="url(#clip0_45_164)">
<g id="Group">
<path id="Vector" d="M51.9485 51.9756H42.9212V37.821C42.9212 34.4457 42.8611 30.1006 38.2261 30.1006C33.5244 30.1006 32.805 33.7781 32.805 37.5753V51.9747H23.7777V22.867H32.4439V26.8449H32.5652C34.3323 23.8198 37.618 22.013 41.1158 22.143C50.2653 22.143 51.9523 28.1686 51.9523 36.0076L51.9485 51.9756ZM13.5919 18.8882C10.6986 18.8887 8.35277 16.5408 8.35225 13.644C8.35173 10.7472 10.6967 8.3984 13.59 8.39788C16.4832 8.39736 18.8291 10.7453 18.8296 13.6421C18.8298 15.0332 18.2781 16.3674 17.2959 17.3512C16.3136 18.3351 14.9812 18.8879 13.5919 18.8882ZM18.1055 51.9756H9.06879V22.867H18.1055V51.9756ZM56.449 0.00432152H4.53257C2.07889 -0.0234025 0.0667195 1.94448 0.0367737 4.40117V56.5975C0.0656942 59.0554 2.0777 61.0252 4.53257 60.9994H56.449C58.9088 61.0299 60.9286 59.0602 60.9627 56.5975V4.3974C60.9276 1.93586 58.9076 -0.0319093 56.449 0.000159489" fill="#FFF8BB"/>
</g>
</g>
<defs>
<clipPath id="clip0_45_164">
<rect width="60.9259" height="61" fill="white" transform="translate(0.0370483)"/>
</clipPath>
</defs>
</svg>
